<svg xmlns="http://www.w3.org/2000/svg" version="1.1" viewBox="0 0 1024 1024">
<g>
<ellipse stroke="#000000" stroke-opacity="0" stroke-width="1" ry="512" rx="512" cy="512" cx="512" fill='#21B637'/>
<path stroke="#000000" stroke-width="1" d="M494.286+551.586L599.227+521.341L599.247+521.343L713.332+607.888L713.332+607.888L609.632+637.032L609.632+637.032L494.286+551.586L494.286+551.586Z" fill="#bbbbbb" stroke-linecap="butt" opacity="1" stroke-linejoin="miter"/>
<path stroke="#000000" stroke-width="1" d="M494.286+551.586L609.632+637.275L609.632+636.866L609.632+856.543L609.632+856.543L494.286+771.264L494.286+771.264L494.286+551.586L494.286+551.586Z" fill="#bbbbbb" stroke-linecap="butt" opacity="1" stroke-linejoin="miter"/>
<path stroke="#000000" stroke-width="1" d="M696.902+154.629C694.099+144.148+689.263+135.229+682.193+128.224C627.38+73.9102+461.272+152.677+311.169+304.164C161.073+455.645+83.8246+622.468+138.628+676.785C144.205+682.308+150.986+686.388+158.725+689.222L158.192+689.79C158.192+689.79+387.065+770.484+551.955+648.34C591.193+619.276+816.02+390.811+696.902+154.629Z" fill="#cccccc" stroke-linecap="butt" opacity="1" stroke-linejoin="miter"/>
<path stroke="#000000" stroke-opacity="0.99827" stroke-width="1" d="M609.632+636.866L713.332+607.888L713.332+607.888L713.332+827.792L713.332+827.965L609.632+856.543L609.632+856.543L609.632+636.866L609.632+636.866Z" fill="#bbbbbb" stroke-linecap="butt" opacity="1" stroke-linejoin="miter"/>
<path stroke="#000000" stroke-width="1" d="M569.347+518.619L569.347+518.619C590.649+494.96+627.097+493.05+650.755+514.353L801.927+650.468C825.586+671.77+827.496+708.218+806.193+731.877L806.193+731.877C784.891+755.535+748.443+757.445+724.785+736.143L573.613+600.028C549.955+578.725+548.044+542.277+569.347+518.619Z" fill="#bbbbbb" stroke-linecap="butt" opacity="1" stroke-linejoin="miter"/>
<path stroke="#000000" stroke-width="1" d="M663.347+147.245C612.338+96.6939+457.741+170.004+318.048+310.983C178.361+451.957+106.47+607.219+157.476+657.767C208.495+708.315+363.076+635.005+502.775+494.025C642.478+353.052+714.36+197.79+663.347+147.245Z" fill="#f9f9f9" stroke-linecap="butt" opacity="1" stroke-linejoin="miter"/>
<path stroke="#000000" stroke-width="1" d="M713.332+693.489C713.332+666.285+735.385+644.231+762.59+644.231C789.794+644.231+811.848+666.285+811.848+693.489C811.848+720.694+789.794+742.747+762.59+742.747C735.385+742.747+713.332+720.694+713.332+693.489Z" fill="#999999" stroke-linecap="butt" opacity="1" stroke-linejoin="miter"/>
<path stroke="#000000" stroke-width="1" d="M582.35+556.368C582.35+544.611+591.881+535.08+603.638+535.08C615.395+535.08+624.926+544.611+624.926+556.368C624.926+568.125+615.395+577.656+603.638+577.656C591.881+577.656+582.35+568.125+582.35+556.368Z" fill="#999999" stroke-linecap="butt" opacity="1" stroke-linejoin="miter"/>
</g>
</svg>